solid PancakeGHSTLMaker,v1
  facet normal -1.451032e-001 -6.864587e-001 7.125444e-001
    outer loop
      vertex 2.628516e-001 1.206090e-001 1.842756e-001
      vertex 2.024377e-001 9.911317e-002 1.512639e-001
      vertex 2.674465e-001 1.085100e-001 1.735552e-001
    endloop
  endfacet
  facet normal -1.744190e-001 -6.571375e-001 7.333133e-001
    outer loop
      vertex 2.189046e-001 1.257767e-001 1.781999e-001
      vertex 2.600650e-001 1.279464e-001 1.899342e-001
      vertex 2.553721e-001 1.403036e-001 1.998915e-001
    endloop
  endfacet
  facet normal -3.021485e-001 -4.267463e-001 8.524048e-001
    outer loop
      vertex 2.199008e-001 2.261564e-001 2.438141e-001
      vertex 2.279682e-001 1.997496e-001 2.334535e-001
      vertex 2.318701e-001 2.021869e-001 2.360568e-001
    endloop
  endfacet
  facet normal -3.021441e-001 -4.267449e-001 8.524070e-001
    outer loop
      vertex 2.318701e-001 2.021869e-001 2.360568e-001
      vertex 2.226866e-001 2.263683e-001 2.449077e-001
      vertex 2.199008e-001 2.261564e-001 2.438141e-001
    endloop
  endfacet
  facet normal -2.314490e-001 -2.741278e-001 9.334267e-001
    outer loop
      vertex 2.576970e-001 1.064137e-001 1.729618e-001
      vertex 2.624345e-001 1.071449e-001 1.743512e-001
      vertex 2.589914e-001 1.066817e-001 1.733615e-001
    endloop
  endfacet
  facet normal -2.313582e-001 -2.744972e-001 9.333406e-001
    outer loop
      vertex 2.676099e-001 1.080800e-001 1.759091e-001
      vertex 2.624345e-001 1.071449e-001 1.743512e-001
      vertex 2.680012e-001 1.070497e-001 1.757031e-001
    endloop
  endfacet
  facet normal -2.314996e-001 -2.739143e-001 9.334768e-001
    outer loop
      vertex 2.589914e-001 1.066817e-001 1.733615e-001
      vertex 2.637288e-001 1.074129e-001 1.747509e-001
      vertex 2.676099e-001 1.080800e-001 1.759091e-001
    endloop
  endfacet
  facet normal -2.313724e-001 -2.744407e-001 9.333537e-001
    outer loop
      vertex 2.637288e-001 1.074129e-001 1.747509e-001
      vertex 2.624345e-001 1.071449e-001 1.743512e-001
      vertex 2.676099e-001 1.080800e-001 1.759091e-001
    endloop
  endfacet
  facet normal -2.314189e-001 -2.742366e-001 9.334021e-001
    outer loop
      vertex 2.576970e-001 1.064137e-001 1.729618e-001
      vertex 2.589914e-001 1.066817e-001 1.733615e-001
      vertex 2.508107e-001 1.054873e-001 1.709823e-001
    endloop
  endfacet
  facet normal -2.313406e-001 -2.745993e-001 9.333149e-001
    outer loop
      vertex 2.676099e-001 1.080800e-001 1.759091e-001
      vertex 2.508107e-001 1.054873e-001 1.709823e-001
      vertex 2.589914e-001 1.066817e-001 1.733615e-001
    endloop
  endfacet
  facet normal -2.313559e-001 -2.745433e-001 9.333276e-001
    outer loop
      vertex 2.680012e-001 1.070497e-001 1.757031e-001
      vertex 2.624345e-001 1.071449e-001 1.743512e-001
      vertex 2.576970e-001 1.064137e-001 1.729618e-001
    endloop
  endfacet
  facet normal -2.313552e-001 -2.745483e-001 9.333263e-001
    outer loop
      vertex 2.576970e-001 1.064137e-001 1.729618e-001
      vertex 2.508107e-001 1.054873e-001 1.709823e-001
      vertex 2.680012e-001 1.070497e-001 1.757031e-001
    endloop
  endfacet
  facet normal -3.514759e-001 6.814333e-001 6.419606e-001
    outer loop
      vertex 2.143775e-001 9.950560e-002 1.573845e-001
      vertex 2.508107e-001 1.054873e-001 1.709823e-001
      vertex 2.024377e-001 9.911317e-002 1.512639e-001
    endloop
  endfacet
  facet normal -3.109661e-001 -5.977569e-001 7.389092e-001
    outer loop
      vertex 8.118445e-002 6.642175e-002 8.180276e-002
      vertex 3.794950e-002 6.416714e-002 6.178364e-002
      vertex 2.381867e-002 3.271204e-002 3.039046e-002
    endloop
  endfacet
  facet normal -2.790647e-001 -6.301758e-001 7.245698e-001
    outer loop
      vertex 8.118445e-002 6.642175e-002 8.180276e-002
      vertex 2.381867e-002 3.271204e-002 3.039046e-002
      vertex 5.193663e-002 3.174418e-002 4.037818e-002
    endloop
  endfacet
  facet normal -5.477164e-001 3.844706e-001 7.430943e-001
    outer loop
      vertex 1.807751e-001 9.083712e-002 1.399681e-001
      vertex 1.770299e-001 8.920097e-002 1.380541e-001
      vertex 1.801794e-001 9.020537e-002 1.398559e-001
    endloop
  endfacet
  facet normal -5.477246e-001 3.845358e-001 7.430545e-001
    outer loop
      vertex 1.770299e-001 8.920097e-002 1.380541e-001
      vertex 1.807751e-001 9.083712e-002 1.399681e-001
      vertex 1.738805e-001 8.819664e-002 1.362523e-001
    endloop
  endfacet
  facet normal -4.890286e-001 7.973686e-001 3.536302e-001
    outer loop
      vertex 2.024377e-001 9.911317e-002 1.512639e-001
      vertex 1.675872e-001 8.606350e-002 1.324943e-001
      vertex 1.807751e-001 9.083712e-002 1.399681e-001
    endloop
  endfacet
  facet normal -2.038437e-001 9.604700e-001 1.895919e-001
    outer loop
      vertex 2.676099e-001 1.080800e-001 1.759091e-001
      vertex 2.674465e-001 1.085100e-001 1.735552e-001
      vertex 2.024377e-001 9.911317e-002 1.512639e-001
    endloop
  endfacet
  facet normal -2.038308e-001 9.604802e-001 1.895542e-001
    outer loop
      vertex 2.024377e-001 9.911317e-002 1.512639e-001
      vertex 2.508107e-001 1.054873e-001 1.709823e-001
      vertex 2.676099e-001 1.080800e-001 1.759091e-001
    endloop
  endfacet
  facet normal -5.369226e-001 3.717700e-001 7.572986e-001
    outer loop
      vertex 1.807751e-001 9.083712e-002 1.399681e-001
      vertex 1.801794e-001 9.020537e-002 1.398559e-001
      vertex 2.024377e-001 9.911317e-002 1.512639e-001
    endloop
  endfacet
  facet normal -5.333562e-001 6.747122e-001 5.101908e-001
    outer loop
      vertex 1.707338e-001 8.713007e-002 1.343733e-001
      vertex 1.807751e-001 9.083712e-002 1.399681e-001
      vertex 1.675872e-001 8.606350e-002 1.324943e-001
    endloop
  endfacet
  facet normal -5.333645e-001 6.746762e-001 5.102296e-001
    outer loop
      vertex 1.807751e-001 9.083712e-002 1.399681e-001
      vertex 1.707338e-001 8.713007e-002 1.343733e-001
      vertex 1.738805e-001 8.819664e-002 1.362523e-001
    endloop
  endfacet
  facet normal -4.561771e-001 2.016921e-004 8.898890e-001
    outer loop
      vertex 2.024377e-001 9.911317e-002 1.512639e-001
      vertex 1.801794e-001 9.020537e-002 1.398559e-001
      vertex 2.143775e-001 9.950560e-002 1.573845e-001
    endloop
  endfacet
  facet normal -3.828967e-001 -5.697689e-001 7.271544e-001
    outer loop
      vertex 3.616053e-002 1.071525e-002 1.559356e-002
      vertex 7.277453e-002 3.860396e-002 5.672581e-002
      vertex 5.193663e-002 3.174418e-002 4.037818e-002
    endloop
  endfacet
  facet normal -3.536946e-001 9.353389e-001 6.424760e-003
    outer loop
      vertex 1.480058e-001 7.874507e-002 1.199461e-001
      vertex 1.675872e-001 8.606350e-002 1.324943e-001
      vertex 2.024377e-001 9.911317e-002 1.512639e-001
    endloop
  endfacet
  facet normal -5.653570e-001 4.850467e-001 6.671590e-001
    outer loop
      vertex 1.480058e-001 7.874507e-002 1.199461e-001
      vertex 2.024377e-001 9.911317e-002 1.512639e-001
      vertex 1.235707e-001 7.272506e-002 1.036163e-001
    endloop
  endfacet
  facet normal -4.774278e-001 -3.011937e-001 8.254363e-001
    outer loop
      vertex 1.144322e-001 6.335104e-002 9.491014e-002
      vertex 1.480058e-001 7.874507e-002 1.199461e-001
      vertex 1.235707e-001 7.272506e-002 1.036163e-001
    endloop
  endfacet
  facet normal -4.853368e-001 -3.902495e-001 7.824024e-001
    outer loop
      vertex 1.144322e-001 6.335104e-002 9.491014e-002
      vertex 5.193663e-002 3.174418e-002 4.037818e-002
      vertex 7.277453e-002 3.860396e-002 5.672581e-002
    endloop
  endfacet
  facet normal -3.573394e-001 -4.562352e-001 8.149589e-001
    outer loop
      vertex 1.793670e-001 1.950842e-001 2.117250e-001
      vertex 1.390312e-001 1.608988e-001 1.749009e-001
      vertex 1.854142e-001 1.702028e-001 2.004473e-001
    endloop
  endfacet
  facet normal -3.035011e-001 -5.787032e-001 7.569609e-001
    outer loop
      vertex 1.499630e-001 9.846419e-002 1.338760e-001
      vertex 8.118445e-002 6.642175e-002 8.180276e-002
      vertex 1.235707e-001 7.272506e-002 1.036163e-001
    endloop
  endfacet
  facet normal -3.042105e-001 -4.180303e-001 8.559828e-001
    outer loop
      vertex 2.221026e-001 2.279060e-001 2.454511e-001
      vertex 2.199008e-001 2.261564e-001 2.438141e-001
      vertex 2.226866e-001 2.263683e-001 2.449077e-001
    endloop
  endfacet
  facet normal -2.792020e-001 -6.300880e-001 7.245933e-001
    outer loop
      vertex 1.235707e-001 7.272506e-002 1.036163e-001
      vertex 8.118445e-002 6.642175e-002 8.180276e-002
      vertex 5.193663e-002 3.174418e-002 4.037818e-002
    endloop
  endfacet
  facet normal -6.176664e-001 -1.197432e-001 7.772707e-001
    outer loop
      vertex 1.235707e-001 7.272506e-002 1.036163e-001
      vertex 5.193663e-002 3.174418e-002 4.037818e-002
      vertex 1.144322e-001 6.335104e-002 9.491014e-002
    endloop
  endfacet
  facet normal -3.155421e-001 -5.847523e-001 7.473272e-001
    outer loop
      vertex 3.794950e-002 6.416714e-002 6.178364e-002
      vertex 8.118445e-002 6.642175e-002 8.180276e-002
      vertex 1.115108e-001 1.020024e-001 1.224478e-001
    endloop
  endfacet
  facet normal -2.766269e-001 -6.112686e-001 7.415041e-001
    outer loop
      vertex 1.115108e-001 1.020024e-001 1.224478e-001
      vertex 8.118445e-002 6.642175e-002 8.180276e-002
      vertex 1.499630e-001 9.846419e-002 1.338760e-001
    endloop
  endfacet
  facet normal -3.419271e-001 -5.531990e-001 7.596425e-001
    outer loop
      vertex 1.115108e-001 1.020024e-001 1.224478e-001
      vertex 8.926582e-002 1.195941e-001 1.252458e-001
      vertex 3.794950e-002 6.416714e-002 6.178364e-002
    endloop
  endfacet
  facet normal -2.240461e-001 -6.346862e-001 7.395788e-001
    outer loop
      vertex 1.499630e-001 9.846419e-002 1.338760e-001
      vertex 2.189046e-001 1.257767e-001 1.781999e-001
      vertex 1.729943e-001 1.275725e-001 1.658330e-001
    endloop
  endfacet
  facet normal -2.420500e-001 -6.115124e-001 7.533023e-001
    outer loop
      vertex 2.024377e-001 9.911317e-002 1.512639e-001
      vertex 2.189046e-001 1.257767e-001 1.781999e-001
      vertex 1.499630e-001 9.846419e-002 1.338760e-001
    endloop
  endfacet
  facet normal -3.364857e-001 -5.473716e-001 7.662648e-001
    outer loop
      vertex 1.472412e-001 1.384567e-001 1.641785e-001
      vertex 8.926582e-002 1.195941e-001 1.252458e-001
      vertex 1.115108e-001 1.020024e-001 1.224478e-001
    endloop
  endfacet
  facet normal -2.778801e-001 -6.019883e-001 7.485938e-001
    outer loop
      vertex 1.729943e-001 1.275725e-001 1.658330e-001
      vertex 1.115108e-001 1.020024e-001 1.224478e-001
      vertex 1.499630e-001 9.846419e-002 1.338760e-001
    endloop
  endfacet
  facet normal -2.941821e-001 -5.806692e-001 7.591313e-001
    outer loop
      vertex 1.729943e-001 1.275725e-001 1.658330e-001
      vertex 1.472412e-001 1.384567e-001 1.641785e-001
      vertex 1.115108e-001 1.020024e-001 1.224478e-001
    endloop
  endfacet
  facet normal -3.243022e-001 -5.158958e-001 7.928932e-001
    outer loop
      vertex 1.919184e-001 1.522106e-001 1.914010e-001
      vertex 1.854142e-001 1.702028e-001 2.004473e-001
      vertex 1.472412e-001 1.384567e-001 1.641785e-001
    endloop
  endfacet
  facet normal -3.469204e-001 -3.698200e-001 8.619045e-001
    outer loop
      vertex 2.210048e-001 2.307966e-001 2.462495e-001
      vertex 2.199008e-001 2.261564e-001 2.438141e-001
      vertex 2.221026e-001 2.279060e-001 2.454511e-001
    endloop
  endfacet
  facet normal -3.469227e-001 -3.698192e-001 8.619040e-001
    outer loop
      vertex 2.199008e-001 2.261564e-001 2.438141e-001
      vertex 2.210048e-001 2.307966e-001 2.462495e-001
      vertex 2.181946e-001 2.311538e-001 2.452716e-001
    endloop
  endfacet
  facet normal -2.378776e-001 -6.275929e-001 7.413106e-001
    outer loop
      vertex 1.499630e-001 9.846419e-002 1.338760e-001
      vertex 1.235707e-001 7.272506e-002 1.036163e-001
      vertex 2.024377e-001 9.911317e-002 1.512639e-001
    endloop
  endfacet
  facet normal -2.388765e-001 -6.048557e-001 7.596628e-001
    outer loop
      vertex 1.729943e-001 1.275725e-001 1.658330e-001
      vertex 2.283954e-001 1.510166e-001 2.019205e-001
      vertex 1.919184e-001 1.522106e-001 1.914010e-001
    endloop
  endfacet
  facet normal -2.910686e-001 -5.721415e-001 7.667680e-001
    outer loop
      vertex 1.919184e-001 1.522106e-001 1.914010e-001
      vertex 1.472412e-001 1.384567e-001 1.641785e-001
      vertex 1.729943e-001 1.275725e-001 1.658330e-001
    endloop
  endfacet
  facet normal -3.371712e-001 -5.034348e-001 7.955306e-001
    outer loop
      vertex 1.472412e-001 1.384567e-001 1.641785e-001
      vertex 1.854142e-001 1.702028e-001 2.004473e-001
      vertex 1.390312e-001 1.608988e-001 1.749009e-001
    endloop
  endfacet
  facet normal -3.678485e-001 -3.739007e-001 8.514022e-001
    outer loop
      vertex 1.744431e-001 2.238201e-001 2.231481e-001
      vertex 2.199008e-001 2.261564e-001 2.438141e-001
      vertex 2.181946e-001 2.311538e-001 2.452716e-001
    endloop
  endfacet
  facet normal -3.678481e-001 -3.739019e-001 8.514019e-001
    outer loop
      vertex 2.181946e-001 2.311538e-001 2.452716e-001
      vertex 1.884534e-001 2.349338e-001 2.340820e-001
      vertex 1.744431e-001 2.238201e-001 2.231481e-001
    endloop
  endfacet
  facet normal -2.912413e-001 -5.116912e-001 8.083010e-001
    outer loop
      vertex 1.919184e-001 1.522106e-001 1.914010e-001
      vertex 2.313602e-001 1.749261e-001 2.199923e-001
      vertex 1.854142e-001 1.702028e-001 2.004473e-001
    endloop
  endfacet
  facet normal -3.267111e-001 -4.549043e-001 8.284455e-001
    outer loop
      vertex 2.279682e-001 1.997496e-001 2.334535e-001
      vertex 1.793670e-001 1.950842e-001 2.117250e-001
      vertex 1.854142e-001 1.702028e-001 2.004473e-001
    endloop
  endfacet
  facet normal -2.992885e-001 -4.861268e-001 8.210403e-001
    outer loop
      vertex 2.279682e-001 1.997496e-001 2.334535e-001
      vertex 1.854142e-001 1.702028e-001 2.004473e-001
      vertex 2.313602e-001 1.749261e-001 2.199923e-001
    endloop
  endfacet
  facet normal -1.785758e-001 -6.425065e-001 7.451819e-001
    outer loop
      vertex 2.600650e-001 1.279464e-001 1.899342e-001
      vertex 2.024377e-001 9.911317e-002 1.512639e-001
      vertex 2.628516e-001 1.206090e-001 1.842756e-001
    endloop
  endfacet
  facet normal -1.785732e-001 -6.425093e-001 7.451801e-001
    outer loop
      vertex 2.024377e-001 9.911317e-002 1.512639e-001
      vertex 2.600650e-001 1.279464e-001 1.899342e-001
      vertex 2.189046e-001 1.257767e-001 1.781999e-001
    endloop
  endfacet
  facet normal -2.265174e-001 -6.204504e-001 7.508203e-001
    outer loop
      vertex 2.189046e-001 1.257767e-001 1.781999e-001
      vertex 2.283954e-001 1.510166e-001 2.019205e-001
      vertex 1.729943e-001 1.275725e-001 1.658330e-001
    endloop
  endfacet
  facet normal -2.456613e-001 -5.649301e-001 7.877211e-001
    outer loop
      vertex 2.313602e-001 1.749261e-001 2.199923e-001
      vertex 1.919184e-001 1.522106e-001 1.914010e-001
      vertex 2.283954e-001 1.510166e-001 2.019205e-001
    endloop
  endfacet
  facet normal -3.628045e-001 -3.972557e-001 8.429477e-001
    outer loop
      vertex 1.793670e-001 1.950842e-001 2.117250e-001
      vertex 2.199008e-001 2.261564e-001 2.438141e-001
      vertex 1.744431e-001 2.238201e-001 2.231481e-001
    endloop
  endfacet
  facet normal -3.335190e-001 -4.308806e-001 8.385147e-001
    outer loop
      vertex 2.279682e-001 1.997496e-001 2.334535e-001
      vertex 2.199008e-001 2.261564e-001 2.438141e-001
      vertex 1.793670e-001 1.950842e-001 2.117250e-001
    endloop
  endfacet
  facet normal -2.282623e-001 -5.688875e-001 7.901034e-001
    outer loop
      vertex 2.478863e-001 1.600145e-001 2.140301e-001
      vertex 2.421435e-001 1.751361e-001 2.232588e-001
      vertex 2.313602e-001 1.749261e-001 2.199923e-001
    endloop
  endfacet
  facet normal -2.282628e-001 -5.688879e-001 7.901030e-001
    outer loop
      vertex 2.313602e-001 1.749261e-001 2.199923e-001
      vertex 2.283954e-001 1.510166e-001 2.019205e-001
      vertex 2.478863e-001 1.600145e-001 2.140301e-001
    endloop
  endfacet
  facet normal -2.003128e-001 -6.041275e-001 7.713007e-001
    outer loop
      vertex 2.478863e-001 1.600145e-001 2.140301e-001
      vertex 2.283954e-001 1.510166e-001 2.019205e-001
      vertex 2.512416e-001 1.511795e-001 2.079815e-001
    endloop
  endfacet
  facet normal -2.736063e-001 -4.871311e-001 8.293629e-001
    outer loop
      vertex 2.327524e-001 1.998639e-001 2.350989e-001
      vertex 2.313602e-001 1.749261e-001 2.199923e-001
      vertex 2.403384e-001 1.798890e-001 2.258692e-001
    endloop
  endfacet
  facet normal -2.736087e-001 -4.871307e-001 8.293624e-001
    outer loop
      vertex 2.313602e-001 1.749261e-001 2.199923e-001
      vertex 2.327524e-001 1.998639e-001 2.350989e-001
      vertex 2.279682e-001 1.997496e-001 2.334535e-001
    endloop
  endfacet
  facet normal -2.798997e-001 -4.548971e-001 8.454140e-001
    outer loop
      vertex 2.279682e-001 1.997496e-001 2.334535e-001
      vertex 2.327524e-001 1.998639e-001 2.350989e-001
      vertex 2.318701e-001 2.021869e-001 2.360568e-001
    endloop
  endfacet
  facet normal -1.945231e-001 -6.319210e-001 7.502244e-001
    outer loop
      vertex 2.512416e-001 1.511795e-001 2.079815e-001
      vertex 2.189046e-001 1.257767e-001 1.781999e-001
      vertex 2.553721e-001 1.403036e-001 1.998915e-001
    endloop
  endfacet
  facet normal -1.945231e-001 -6.319210e-001 7.502244e-001
    outer loop
      vertex 2.189046e-001 1.257767e-001 1.781999e-001
      vertex 2.512416e-001 1.511795e-001 2.079815e-001
      vertex 2.283954e-001 1.510166e-001 2.019205e-001
    endloop
  endfacet
  facet normal -2.353700e-001 -5.350202e-001 8.113904e-001
    outer loop
      vertex 2.313602e-001 1.749261e-001 2.199923e-001
      vertex 2.421435e-001 1.751361e-001 2.232588e-001
      vertex 2.403384e-001 1.798890e-001 2.258692e-001
    endloop
  endfacet
  facet normal -3.611636e-001 -5.062736e-001 7.831015e-001
    outer loop
      vertex 1.472412e-001 1.384567e-001 1.641785e-001
      vertex 1.390312e-001 1.608988e-001 1.749009e-001
      vertex 8.926582e-002 1.195941e-001 1.252458e-001
    endloop
  endfacet
  facet normal -2.075248e-001 -7.372094e-001 6.430052e-001
    outer loop
      vertex 2.590942e-002 0.000000e+000 0.000000e+000
      vertex 3.616053e-002 1.071525e-002 1.559356e-002
      vertex 2.408582e-002 2.306700e-003 2.056092e-003
    endloop
  endfacet
  facet normal -2.739203e-001 -6.508322e-001 7.080855e-001
    outer loop
      vertex 1.670754e-002 1.163960e-002 8.270934e-003
      vertex 5.193663e-002 3.174418e-002 4.037818e-002
      vertex 2.381867e-002 3.271204e-002 3.039046e-002
    endloop
  endfacet
  facet normal -2.739218e-001 -6.508317e-001 7.080854e-001
    outer loop
      vertex 2.381867e-002 3.271204e-002 3.039046e-002
      vertex 1.036561e-002 1.966161e-002 1.319094e-002
      vertex 1.670754e-002 1.163960e-002 8.270934e-003
    endloop
  endfacet
  facet normal -1.817757e-001 -7.313111e-001 6.573749e-001
    outer loop
      vertex 5.193663e-002 3.174418e-002 4.037818e-002
      vertex 1.670754e-002 1.163960e-002 8.270934e-003
      vertex 2.162832e-002 5.415201e-003 2.707154e-003
    endloop
  endfacet
  facet normal -2.494669e-001 -6.674837e-001 7.015923e-001
    outer loop
      vertex 2.381867e-002 3.271204e-002 3.039046e-002
      vertex 6.079793e-003 2.508271e-002 1.682457e-002
      vertex 1.036561e-002 1.966161e-002 1.319094e-002
    endloop
  endfacet
  facet normal -3.073277e-001 -5.995007e-001 7.390187e-001
    outer loop
      vertex 3.794950e-002 6.416714e-002 6.178364e-002
      vertex 6.079793e-003 2.508271e-002 1.682457e-002
      vertex 2.381867e-002 3.271204e-002 3.039046e-002
    endloop
  endfacet
  facet normal -3.073297e-001 -5.994993e-001 7.390189e-001
    outer loop
      vertex 6.079793e-003 2.508271e-002 1.682457e-002
      vertex 3.794950e-002 6.416714e-002 6.178364e-002
      vertex 5.602241e-004 3.206450e-002 2.019289e-002
    endloop
  endfacet
  facet normal -4.569320e-001 -5.133524e-001 7.264175e-001
    outer loop
      vertex 2.526140e-002 6.740212e-003 5.928755e-003
      vertex 3.283840e-002 1.332253e-002 1.534651e-002
      vertex 2.723336e-002 9.368896e-003 9.026825e-003
    endloop
  endfacet
  facet normal -4.568812e-001 -5.134031e-001 7.264137e-001
    outer loop
      vertex 3.283840e-002 1.332253e-002 1.534651e-002
      vertex 5.193663e-002 3.174418e-002 4.037818e-002
      vertex 3.481042e-002 1.595110e-002 1.844460e-002
    endloop
  endfacet
  facet normal -4.569285e-001 -5.133563e-001 7.264170e-001
    outer loop
      vertex 2.162832e-002 5.415201e-003 2.707154e-003
      vertex 3.481042e-002 1.595110e-002 1.844460e-002
      vertex 5.193663e-002 3.174418e-002 4.037818e-002
    endloop
  endfacet
  facet normal -4.569206e-001 -5.133647e-001 7.264161e-001
    outer loop
      vertex 2.408582e-002 2.306700e-003 2.056092e-003
      vertex 3.616053e-002 1.071525e-002 1.559356e-002
      vertex 3.283840e-002 1.332253e-002 1.534651e-002
    endloop
  endfacet
  facet normal -4.569207e-001 -5.133649e-001 7.264158e-001
    outer loop
      vertex 5.193663e-002 3.174418e-002 4.037818e-002
      vertex 3.283840e-002 1.332253e-002 1.534651e-002
      vertex 3.616053e-002 1.071525e-002 1.559356e-002
    endloop
  endfacet
  facet normal -4.569168e-001 -5.133647e-001 7.264184e-001
    outer loop
      vertex 2.526140e-002 6.740212e-003 5.928755e-003
      vertex 2.723336e-002 9.368896e-003 9.026825e-003
      vertex 2.162832e-002 5.415201e-003 2.707154e-003
    endloop
  endfacet
  facet normal -4.568616e-001 -5.134276e-001 7.264087e-001
    outer loop
      vertex 3.481042e-002 1.595110e-002 1.844460e-002
      vertex 2.162832e-002 5.415201e-003 2.707154e-003
      vertex 2.723336e-002 9.368896e-003 9.026825e-003
    endloop
  endfacet
  facet normal -4.569141e-001 -5.133690e-001 7.264171e-001
    outer loop
      vertex 2.162832e-002 5.415201e-003 2.707154e-003
      vertex 2.408582e-002 2.306700e-003 2.056092e-003
      vertex 2.526140e-002 6.740212e-003 5.928755e-003
    endloop
  endfacet
  facet normal -4.569172e-001 -5.133675e-001 7.264162e-001
    outer loop
      vertex 2.526140e-002 6.740212e-003 5.928755e-003
      vertex 2.408582e-002 2.306700e-003 2.056092e-003
      vertex 3.283840e-002 1.332253e-002 1.534651e-002
    endloop
  endfacet
  facet normal -3.776294e-001 -4.349638e-001 8.174366e-001
    outer loop
      vertex 1.335713e-001 1.843213e-001 1.848419e-001
      vertex 1.390312e-001 1.608988e-001 1.749009e-001
      vertex 1.793670e-001 1.950842e-001 2.117250e-001
    endloop
  endfacet
  facet normal -3.776311e-001 -4.349599e-001 8.174379e-001
    outer loop
      vertex 1.793670e-001 1.950842e-001 2.117250e-001
      vertex 1.381745e-001 1.895442e-001 1.897475e-001
      vertex 1.335713e-001 1.843213e-001 1.848419e-001
    endloop
  endfacet
  facet normal -3.962784e-001 -4.915212e-001 7.754807e-001
    outer loop
      vertex 6.608367e-002 1.077508e-001 1.058929e-001
      vertex 8.926582e-002 1.195941e-001 1.252458e-001
      vertex 8.058226e-002 1.242007e-001 1.237282e-001
    endloop
  endfacet
  facet normal -3.611925e-001 -5.378062e-001 7.617772e-001
    outer loop
      vertex 3.435934e-002 7.175678e-002 6.543963e-002
      vertex 8.926582e-002 1.195941e-001 1.252458e-001
      vertex 6.608367e-002 1.077508e-001 1.058929e-001
    endloop
  endfacet
  facet normal -3.611895e-001 -5.378089e-001 7.617767e-001
    outer loop
      vertex 8.926582e-002 1.195941e-001 1.252458e-001
      vertex 3.435934e-002 7.175678e-002 6.543963e-002
      vertex 3.794950e-002 6.416714e-002 6.178364e-002
    endloop
  endfacet
  facet normal -3.953187e-001 -4.890336e-001 7.775405e-001
    outer loop
      vertex 8.926582e-002 1.195941e-001 1.252458e-001
      vertex 1.005246e-001 1.468270e-001 1.480982e-001
      vertex 8.058226e-002 1.242007e-001 1.237282e-001
    endloop
  endfacet
  facet normal -3.590326e-001 -5.083792e-001 7.827172e-001
    outer loop
      vertex 1.390312e-001 1.608988e-001 1.749009e-001
      vertex 1.005246e-001 1.468270e-001 1.480982e-001
      vertex 8.926582e-002 1.195941e-001 1.252458e-001
    endloop
  endfacet
  facet normal -3.590330e-001 -5.083784e-001 7.827175e-001
    outer loop
      vertex 1.005246e-001 1.468270e-001 1.480982e-001
      vertex 1.390312e-001 1.608988e-001 1.749009e-001
      vertex 1.072450e-001 1.544520e-001 1.561333e-001
    endloop
  endfacet
  facet normal -3.906227e-001 -4.353121e-001 8.111210e-001
    outer loop
      vertex 1.390312e-001 1.608988e-001 1.749009e-001
      vertex 1.335713e-001 1.843213e-001 1.848419e-001
      vertex 1.072450e-001 1.544520e-001 1.561333e-001
    endloop
  endfacet
  facet normal -3.898818e-001 -3.970869e-001 8.308514e-001
    outer loop
      vertex 1.793670e-001 1.950842e-001 2.117250e-001
      vertex 1.744431e-001 2.238201e-001 2.231481e-001
      vertex 1.514286e-001 2.045820e-001 2.031540e-001
    endloop
  endfacet
  facet normal -3.898817e-001 -3.970858e-001 8.308521e-001
    outer loop
      vertex 1.514286e-001 2.045820e-001 2.031540e-001
      vertex 1.381745e-001 1.895442e-001 1.897475e-001
      vertex 1.793670e-001 1.950842e-001 2.117250e-001
    endloop
  endfacet
  facet normal -4.127673e-001 -3.708303e-001 8.319303e-001
    outer loop
      vertex 1.744431e-001 2.238201e-001 2.231481e-001
      vertex 1.681396e-001 2.235421e-001 2.198967e-001
      vertex 1.514286e-001 2.045820e-001 2.031540e-001
    endloop
  endfacet
  facet normal -4.112126e-001 -3.209656e-001 8.531619e-001
    outer loop
      vertex 1.792149e-001 2.361080e-001 2.300709e-001
      vertex 1.734662e-001 2.295856e-001 2.248463e-001
      vertex 1.744431e-001 2.238201e-001 2.231481e-001
    endloop
  endfacet
  facet normal -4.112139e-001 -3.209649e-001 8.531616e-001
    outer loop
      vertex 1.744431e-001 2.238201e-001 2.231481e-001
      vertex 1.884534e-001 2.349338e-001 2.340820e-001
      vertex 1.792149e-001 2.361080e-001 2.300709e-001
    endloop
  endfacet
  facet normal -4.228981e-001 -3.212281e-001 8.473309e-001
    outer loop
      vertex 1.734662e-001 2.295856e-001 2.248463e-001
      vertex 1.681396e-001 2.235421e-001 2.198967e-001
      vertex 1.744431e-001 2.238201e-001 2.231481e-001
    endloop
  endfacet
  facet normal -3.345816e-001 -5.762998e-001 7.456096e-001
    outer loop
      vertex 1.835942e-002 4.997838e-002 4.202606e-002
      vertex 8.961916e-003 4.190964e-002 3.157254e-002
      vertex 1.862442e-002 4.932880e-002 4.164290e-002
    endloop
  endfacet
  facet normal -3.345937e-001 -5.762892e-001 7.456123e-001
    outer loop
      vertex 9.359419e-003 4.093522e-002 3.099780e-002
      vertex 9.491920e-003 4.061043e-002 3.080623e-002
      vertex 1.888943e-002 4.867917e-002 4.125975e-002
    endloop
  endfacet
  facet normal -3.345674e-001 -5.763101e-001 7.456080e-001
    outer loop
      vertex 1.862442e-002 4.932880e-002 4.164290e-002
      vertex 9.226918e-003 4.126000e-002 3.118938e-002
      vertex 9.359419e-003 4.093522e-002 3.099780e-002
    endloop
  endfacet
  facet normal -3.346183e-001 -5.762671e-001 7.456185e-001
    outer loop
      vertex 1.888943e-002 4.867917e-002 4.125975e-002
      vertex 1.862442e-002 4.932880e-002 4.164290e-002
      vertex 9.359419e-003 4.093522e-002 3.099780e-002
    endloop
  endfacet
  facet normal -3.345674e-001 -5.763101e-001 7.456080e-001
    outer loop
      vertex 9.226918e-003 4.126000e-002 3.118938e-002
      vertex 4.528165e-003 3.722560e-002 2.596262e-002
      vertex 9.359419e-003 4.093522e-002 3.099780e-002
    endloop
  endfacet
  facet normal -3.344820e-001 -5.763931e-001 7.455822e-001
    outer loop
      vertex 4.660666e-003 3.690082e-002 2.577104e-002
      vertex 2.311289e-003 3.488368e-002 2.315766e-002
      vertex 4.726946e-003 3.673846e-002 2.567525e-002
    endloop
  endfacet
  facet normal -3.346592e-001 -5.762278e-001 7.456304e-001
    outer loop
      vertex 4.726946e-003 3.673846e-002 2.567525e-002
      vertex 2.377510e-003 3.472126e-002 2.306186e-002
      vertex 4.793167e-003 3.657603e-002 2.557945e-002
    endloop
  endfacet
  facet normal -3.346628e-001 -5.762282e-001 7.456285e-001
    outer loop
      vertex 4.726946e-003 3.673846e-002 2.567525e-002
      vertex 4.793167e-003 3.657603e-002 2.557945e-002
      vertex 9.491920e-003 4.061043e-002 3.080623e-002
    endloop
  endfacet
  facet normal -3.344733e-001 -5.763922e-001 7.455868e-001
    outer loop
      vertex 9.359419e-003 4.093522e-002 3.099780e-002
      vertex 4.660666e-003 3.690082e-002 2.577104e-002
      vertex 4.726946e-003 3.673846e-002 2.567525e-002
    endloop
  endfacet
  facet normal -3.345950e-001 -5.762894e-001 7.456117e-001
    outer loop
      vertex 9.491920e-003 4.061043e-002 3.080623e-002
      vertex 9.359419e-003 4.093522e-002 3.099780e-002
      vertex 4.726946e-003 3.673846e-002 2.567525e-002
    endloop
  endfacet
  facet normal -3.345688e-001 -5.763103e-001 7.456073e-001
    outer loop
      vertex 9.491920e-003 4.061043e-002 3.080623e-002
      vertex 4.793167e-003 3.657603e-002 2.557945e-002
      vertex 9.624422e-003 4.028565e-002 3.061464e-002
    endloop
  endfacet
  facet normal -3.344249e-001 -5.764344e-001 7.455758e-001
    outer loop
      vertex 4.925668e-003 3.625125e-002 2.538788e-002
      vertex 2.576292e-003 3.423405e-002 2.277450e-002
      vertex 4.991949e-003 3.608888e-002 2.529208e-002
    endloop
  endfacet
  facet normal -3.344140e-001 -5.764333e-001 7.455816e-001
    outer loop
      vertex 2.576292e-003 3.423405e-002 2.277450e-002
      vertex 5.602241e-004 3.206450e-002 2.019289e-002
      vertex 2.642572e-003 3.407168e-002 2.267870e-002
    endloop
  endfacet
  facet normal -3.345948e-001 -5.762862e-001 7.456142e-001
    outer loop
      vertex 4.991949e-003 3.608888e-002 2.529208e-002
      vertex 2.642572e-003 3.407168e-002 2.267870e-002
      vertex 5.602241e-004 3.206450e-002 2.019289e-002
    endloop
  endfacet
  facet normal -3.344249e-001 -5.764344e-001 7.455758e-001
    outer loop
      vertex 9.624422e-003 4.028565e-002 3.061464e-002
      vertex 4.925668e-003 3.625125e-002 2.538788e-002
      vertex 4.991949e-003 3.608888e-002 2.529208e-002
    endloop
  endfacet
  facet normal -3.346003e-001 -5.762899e-001 7.456089e-001
    outer loop
      vertex 4.925668e-003 3.625125e-002 2.538788e-002
      vertex 4.793167e-003 3.657603e-002 2.557945e-002
      vertex 2.443790e-003 3.455889e-002 2.296607e-002
    endloop
  endfacet
  facet normal -3.346414e-001 -5.762469e-001 7.456237e-001
    outer loop
      vertex 4.991949e-003 3.608888e-002 2.529208e-002
      vertex 5.602241e-004 3.206450e-002 2.019289e-002
      vertex 3.794950e-002 6.416714e-002 6.178364e-002
    endloop
  endfacet
  facet normal -3.345711e-001 -5.763136e-001 7.456037e-001
    outer loop
      vertex 0.000000e+000 3.277308e-002 2.048920e-002
      vertex 5.602241e-004 3.206450e-002 2.019289e-002
      vertex 2.576292e-003 3.423405e-002 2.277450e-002
    endloop
  endfacet
  facet normal -3.344758e-001 -5.763924e-001 7.455854e-001
    outer loop
      vertex 2.377510e-003 3.472126e-002 2.306186e-002
      vertex 0.000000e+000 3.277308e-002 2.048920e-002
      vertex 2.443790e-003 3.455889e-002 2.296607e-002
    endloop
  endfacet
  facet normal -3.346528e-001 -5.762224e-001 7.456375e-001
    outer loop
      vertex 2.576292e-003 3.423405e-002 2.277450e-002
      vertex 2.443790e-003 3.455889e-002 2.296607e-002
      vertex 0.000000e+000 3.277308e-002 2.048920e-002
    endloop
  endfacet
  facet normal -3.346593e-001 -5.762278e-001 7.456303e-001
    outer loop
      vertex 0.000000e+000 3.277308e-002 2.048920e-002
      vertex 2.377510e-003 3.472126e-002 2.306186e-002
      vertex 2.311289e-003 3.488368e-002 2.315766e-002
    endloop
  endfacet
  facet normal -3.343880e-001 -5.764560e-001 7.455758e-001
    outer loop
      vertex 4.528165e-003 3.722560e-002 2.596262e-002
      vertex 0.000000e+000 3.277308e-002 2.048920e-002
      vertex 2.311289e-003 3.488368e-002 2.315766e-002
    endloop
  endfacet
  facet normal -3.345695e-001 -5.763103e-001 7.456069e-001
    outer loop
      vertex 9.491920e-003 4.061043e-002 3.080623e-002
      vertex 9.624422e-003 4.028565e-002 3.061464e-002
      vertex 1.888943e-002 4.867917e-002 4.125975e-002
    endloop
  endfacet
  facet normal -3.345453e-001 -5.763308e-001 7.456020e-001
    outer loop
      vertex 3.794950e-002 6.416714e-002 6.178364e-002
      vertex 1.888943e-002 4.867917e-002 4.125975e-002
      vertex 9.624422e-003 4.028565e-002 3.061464e-002
    endloop
  endfacet
  facet normal -3.346162e-001 -5.762669e-001 7.456195e-001
    outer loop
      vertex 1.862442e-002 4.932880e-002 4.164290e-002
      vertex 1.888943e-002 4.867917e-002 4.125975e-002
      vertex 3.794950e-002 6.416714e-002 6.178364e-002
    endloop
  endfacet
  facet normal -3.344951e-001 -5.763751e-001 7.455902e-001
    outer loop
      vertex 3.794950e-002 6.416714e-002 6.178364e-002
      vertex 9.624422e-003 4.028565e-002 3.061464e-002
      vertex 4.991949e-003 3.608888e-002 2.529208e-002
    endloop
  endfacet
  facet normal -3.346169e-001 -5.762669e-001 7.456192e-001
    outer loop
      vertex 8.961916e-003 4.190964e-002 3.157254e-002
      vertex 4.528165e-003 3.722560e-002 2.596262e-002
      vertex 9.226918e-003 4.126000e-002 3.118938e-002
    endloop
  endfacet
  facet normal -3.345629e-001 -5.763118e-001 7.456087e-001
    outer loop
      vertex 0.000000e+000 3.277308e-002 2.048920e-002
      vertex 8.961916e-003 4.190964e-002 3.157254e-002
      vertex 2.111483e-002 5.672973e-002 4.848075e-002
    endloop
  endfacet
  facet normal -3.345810e-001 -5.762997e-001 7.456099e-001
    outer loop
      vertex 1.862442e-002 4.932880e-002 4.164290e-002
      vertex 3.794950e-002 6.416714e-002 6.178364e-002
      vertex 1.835942e-002 4.997838e-002 4.202606e-002
    endloop
  endfacet
  facet normal -3.345862e-001 -5.762947e-001 7.456115e-001
    outer loop
      vertex 2.111483e-002 5.672973e-002 4.848075e-002
      vertex 1.835942e-002 4.997838e-002 4.202606e-002
      vertex 3.794950e-002 6.416714e-002 6.178364e-002
    endloop
  endfacet
  facet normal -3.345891e-001 -5.762933e-001 7.456113e-001
    outer loop
      vertex 8.961916e-003 4.190964e-002 3.157254e-002
      vertex 1.835942e-002 4.997838e-002 4.202606e-002
      vertex 2.111483e-002 5.672973e-002 4.848075e-002
    endloop
  endfacet
  facet normal -3.347633e-001 -5.761541e-001 7.456407e-001
    outer loop
      vertex 4.528165e-003 3.722560e-002 2.596262e-002
      vertex 8.961916e-003 4.190964e-002 3.157254e-002
      vertex 0.000000e+000 3.277308e-002 2.048920e-002
    endloop
  endfacet
  facet normal -3.345761e-001 -5.763110e-001 7.456034e-001
    outer loop
      vertex 2.311289e-003 3.488368e-002 2.315766e-002
      vertex 4.660666e-003 3.690082e-002 2.577104e-002
      vertex 4.528165e-003 3.722560e-002 2.596262e-002
    endloop
  endfacet
  facet normal -3.632263e-001 -5.381793e-001 7.605456e-001
    outer loop
      vertex 3.794950e-002 6.416714e-002 6.178364e-002
      vertex 3.435934e-002 7.175678e-002 6.543963e-002
      vertex 2.111483e-002 5.672973e-002 4.848075e-002
    endloop
  endfacet
  facet normal -2.314210e-001 -2.742649e-001 9.333933e-001
    outer loop
      vertex 2.624345e-001 1.071449e-001 1.743512e-001
      vertex 2.637288e-001 1.074129e-001 1.747509e-001
      vertex 2.589914e-001 1.066817e-001 1.733615e-001
    endloop
  endfacet
  facet normal -4.569033e-001 -5.133850e-001 7.264125e-001
    outer loop
      vertex 3.283840e-002 1.332253e-002 1.534651e-002
      vertex 3.481042e-002 1.595110e-002 1.844460e-002
      vertex 2.723336e-002 9.368896e-003 9.026825e-003
    endloop
  endfacet
  facet normal -3.346169e-001 -5.762669e-001 7.456192e-001
    outer loop
      vertex 8.961916e-003 4.190964e-002 3.157254e-002
      vertex 9.226918e-003 4.126000e-002 3.118938e-002
      vertex 1.862442e-002 4.932880e-002 4.164290e-002
    endloop
  endfacet
  facet normal -3.345674e-001 -5.763101e-001 7.456080e-001
    outer loop
      vertex 4.528165e-003 3.722560e-002 2.596262e-002
      vertex 4.660666e-003 3.690082e-002 2.577104e-002
      vertex 9.359419e-003 4.093522e-002 3.099780e-002
    endloop
  endfacet
  facet normal -3.346592e-001 -5.762278e-001 7.456304e-001
    outer loop
      vertex 2.311289e-003 3.488368e-002 2.315766e-002
      vertex 2.377510e-003 3.472126e-002 2.306186e-002
      vertex 4.726946e-003 3.673846e-002 2.567525e-002
    endloop
  endfacet
  facet normal -3.344820e-001 -5.763931e-001 7.455822e-001
    outer loop
      vertex 2.377510e-003 3.472126e-002 2.306186e-002
      vertex 2.443790e-003 3.455889e-002 2.296607e-002
      vertex 4.793167e-003 3.657603e-002 2.557945e-002
    endloop
  endfacet
  facet normal -3.345916e-001 -5.762890e-001 7.456135e-001
    outer loop
      vertex 4.793167e-003 3.657603e-002 2.557945e-002
      vertex 4.925668e-003 3.625125e-002 2.538788e-002
      vertex 9.624422e-003 4.028565e-002 3.061464e-002
    endloop
  endfacet
  facet normal -3.344249e-001 -5.764344e-001 7.455758e-001
    outer loop
      vertex 2.576292e-003 3.423405e-002 2.277450e-002
      vertex 2.642572e-003 3.407168e-002 2.267870e-002
      vertex 4.991949e-003 3.608888e-002 2.529208e-002
    endloop
  endfacet
  facet normal -3.346664e-001 -5.762237e-001 7.456304e-001
    outer loop
      vertex 4.925668e-003 3.625125e-002 2.538788e-002
      vertex 2.443790e-003 3.455889e-002 2.296607e-002
      vertex 2.576292e-003 3.423405e-002 2.277450e-002
    endloop
  endfacet
endsolid PancakeGHSTLMaker
